<svg xmlns="http://www.w3.org/2000/svg" viewBox="0 0 1542 876" role="img" aria-label="Flip&#39;s"><g transform="translate(0.000000,876.000000) scale(0.100000,-0.100000)" fill="#7ED06B"><path d="M14052 8727 c-21 -22 -50 -38 -84 -46 -94 -25 -172 -63 -220 -107
-26 -24 -54 -44 -63 -44 -9 0 -30 -7 -47 -16 l-31 -16 6 -127 c10 -204 4 -233
-53 -270 -55 -36 -96 -91 -115 -155 -8 -25 -26 -62 -41 -82 -22 -28 -28 -50
-34 -113 -5 -63 -13 -90 -41 -137 -31 -55 -34 -65 -34 -147 l0 -88 -57 -52
c-64 -59 -138 -168 -138 -204 0 -14 -13 -43 -29 -66 -15 -23 -31 -60 -35 -81
-5 -25 -22 -56 -46 -83 -28 -33 -39 -55 -44 -92 -5 -39 -15 -59 -45 -92 -50
-53 -61 -98 -61 -244 0 -102 3 -121 20 -146 36 -49 146 -65 204 -30 60 38 176
188 176 228 0 7 23 29 50 49 28 20 50 39 50 43 0 18 69 112 130 176 37 40 78
96 94 130 15 33 53 89 85 125 31 36 76 92 101 125 24 33 68 83 96 113 50 50
114 172 114 216 0 25 31 96 72 162 20 34 40 75 44 91 4 15 23 52 43 81 48 72
70 113 71 135 0 10 20 61 44 115 77 171 100 269 94 403 -3 68 -9 101 -21 119
-9 13 -17 31 -17 40 0 9 -24 39 -53 68 -49 49 -56 52 -103 52 -44 0 -54 -4
-82 -33z M636 8579 c-93 -6 -119 -12 -171 -38 -129 -65 -290 -227 -321 -322
-9 -30 -23 -61 -30 -69 -7 -8 -16 -28 -20 -45 -4 -16 -12 -41 -19 -55 -38 -73
-45 -130 -45 -344 0 -121 -4 -216 -10 -222 -24 -24 -8 -421 20 -494 6 -14 16
-59 24 -100 7 -41 18 -88 24 -105 30 -84 64 -210 68 -248 10 -86 26 -121 86
-182 57 -60 58 -61 58 -118 0 -78 28 -186 55 -217 13 -14 25 -43 28 -65 17
-127 43 -204 105 -314 45 -79 84 -159 108 -221 10 -25 28 -59 41 -77 19 -25
23 -44 23 -98 0 -72 31 -150 76 -192 32 -29 34 -106 4 -138 -15 -15 -22 -46
-31 -120 l-11 -100 29 -25 c16 -14 39 -40 52 -57 12 -18 27 -33 33 -33 5 0 22
-9 36 -21 15 -11 49 -35 76 -52 28 -18 60 -39 71 -47 33 -23 78 -52 101 -66
20 -12 22 -25 28 -136 9 -188 15 -214 67 -293 63 -96 82 -140 90 -209 5 -43
13 -64 28 -75 25 -19 56 -74 77 -139 9 -26 22 -54 30 -62 22 -25 44 -87 44
-122 0 -18 9 -49 19 -68 32 -58 42 -82 58 -145 8 -33 21 -67 28 -75 14 -17 55
-99 55 -112 0 -4 14 -36 30 -70 17 -34 30 -71 30 -83 0 -12 9 -30 20 -40 11
-10 20 -23 20 -29 0 -6 16 -36 35 -66 19 -30 35 -60 35 -67 0 -8 16 -47 35
-87 19 -41 35 -87 35 -103 0 -38 33 -99 81 -148 37 -39 39 -44 39 -104 0 -77
5 -87 99 -184 42 -43 79 -87 83 -98 4 -10 12 -19 19 -19 6 0 22 -9 36 -20 22
-17 41 -20 121 -20 106 0 160 21 201 79 12 16 38 38 58 48 21 11 43 29 48 40
6 11 24 34 42 51 37 37 47 100 42 250 -4 87 -5 92 -36 124 -24 24 -33 43 -33
66 0 21 -13 52 -35 85 -24 35 -35 63 -35 88 0 29 -10 47 -56 100 -112 129
-132 179 -137 359 l-2 75 -47 22 -48 23 0 63 c0 57 -4 69 -32 107 -76 100
-108 154 -108 182 0 14 -8 36 -18 49 -27 35 -51 136 -55 234 -2 39 -1 40 32
43 18 2 38 -1 44 -7 6 -6 30 -11 53 -11 25 0 60 -10 88 -25 26 -14 60 -25 77
-25 30 0 122 -41 134 -59 6 -11 188 -101 203 -101 5 0 17 -9 27 -20 10 -11 23
-20 28 -20 6 0 20 -8 31 -18 26 -23 124 -40 270 -46 l110 -5 45 42 c25 23 51
53 58 67 13 30 74 94 126 133 46 35 79 152 48 171 -5 3 -12 32 -16 63 -10 83
-22 93 -114 93 -75 0 -76 1 -104 35 -29 36 -87 50 -103 24 -20 -33 -194 26
-194 66 0 22 -39 42 -95 48 -27 3 -70 15 -95 25 -25 11 -70 23 -101 27 -51 6
-63 13 -122 66 -60 54 -69 59 -112 59 -53 0 -77 10 -121 52 -35 32 -84 47
-156 48 -50 0 -63 4 -174 57 -39 18 -75 33 -79 33 -4 0 -18 9 -32 20 -14 11
-34 20 -43 20 -25 0 -124 47 -143 68 -8 9 -19 29 -22 45 -4 15 -11 30 -16 33
-5 3 -9 16 -9 28 0 42 -30 97 -61 114 -74 41 -75 43 -83 153 -8 120 -17 144
-73 182 l-43 28 0 73 c0 69 -1 73 -30 94 -24 18 -30 30 -30 58 0 26 -8 43 -30
66 -25 24 -30 38 -30 76 0 56 -25 126 -59 168 -24 28 -44 59 -79 120 -7 12
-16 43 -21 69 -5 28 -19 58 -35 74 -22 23 -26 36 -26 83 0 50 -4 61 -36 100
-42 49 -64 95 -64 132 0 18 -9 30 -30 41 -29 15 -30 18 -30 83 0 74 -7 89 -59
124 -47 32 -86 153 -101 321 -8 81 -19 138 -33 170 -20 47 -21 52 -7 180 7 73
16 187 19 255 l6 123 58 49 59 50 88 0 c97 0 133 -17 165 -81 16 -31 107 -79
149 -79 13 0 29 -6 35 -14 6 -7 54 -24 106 -36 82 -18 102 -27 144 -64 31 -26
76 -51 118 -65 37 -13 81 -34 96 -47 16 -13 39 -24 53 -24 25 0 89 -52 209
-169 43 -42 70 -61 96 -65 20 -4 46 -18 60 -33 13 -14 53 -40 89 -57 98 -47
243 -169 372 -313 14 -17 40 -33 57 -36 28 -6 129 -98 212 -192 43 -49 235
-226 266 -244 15 -10 101 -89 189 -177 88 -87 184 -179 213 -203 28 -24 59
-57 67 -74 9 -16 40 -60 70 -95 30 -36 54 -71 54 -77 0 -18 28 -71 45 -85 7
-6 17 -26 21 -43 3 -17 14 -42 22 -56 20 -30 30 -300 13 -344 -6 -15 -26 -34
-46 -44 -57 -27 -115 -124 -115 -190 0 -51 1 -53 74 -128 99 -102 166 -120
260 -70 26 14 52 25 57 25 30 0 102 46 135 85 20 26 52 52 69 59 34 14 171
145 220 210 36 47 65 127 65 181 0 22 12 63 25 90 14 28 25 57 25 65 0 8 7 33
15 55 9 25 14 80 15 143 0 103 0 104 -30 130 -27 24 -30 33 -30 84 0 56 -1 58
-40 83 -40 25 -45 36 -54 110 -9 76 -19 100 -67 159 -32 40 -55 82 -70 128
-20 62 -27 73 -66 97 -44 28 -73 68 -73 101 0 20 -39 62 -113 123 -26 21 -47
46 -47 56 0 23 -59 78 -93 87 -18 4 -32 16 -38 33 -23 65 -56 116 -83 130 -17
9 -70 53 -118 99 -56 52 -100 85 -119 89 -19 4 -35 16 -44 34 -8 15 -25 31
-37 35 -13 4 -45 25 -73 48 -27 23 -67 50 -89 61 -24 12 -53 41 -77 77 -38 56
-42 58 -83 58 -32 0 -48 6 -66 25 -13 14 -30 25 -39 25 -55 0 -137 47 -176
101 -24 33 -41 45 -79 56 -48 14 -85 40 -190 134 -28 25 -66 51 -83 57 -18 6
-48 22 -66 36 -25 19 -46 26 -78 26 -47 0 -86 26 -124 83 -14 22 -25 27 -60
27 -31 0 -52 7 -72 23 -17 15 -48 27 -78 31 -43 5 -56 13 -96 56 -26 28 -55
50 -66 50 -11 0 -41 11 -66 24 -25 14 -63 28 -84 32 -22 4 -54 21 -76 40 -29
27 -46 34 -77 34 -45 0 -124 47 -133 80 -6 24 -63 50 -108 50 -34 0 -123 23
-177 46 -18 8 -52 14 -75 14 -23 0 -105 7 -182 15 -77 8 -144 14 -150 13 -5 0
-59 -4 -119 -9z M6725 7433 c-11 -3 -24 -9 -29 -14 -6 -5 -22 -9 -36 -9 -16 0
-37 -12 -55 -30 -22 -23 -37 -30 -68 -30 -46 0 -90 -28 -112 -71 -14 -26 -21
-29 -64 -29 -35 0 -53 -5 -66 -19 -9 -11 -33 -21 -53 -23 -30 -2 -40 -9 -51
-33 -17 -37 -60 -85 -77 -85 -21 0 -104 -51 -125 -78 -11 -14 -33 -32 -48 -38
-15 -7 -43 -31 -62 -55 -19 -23 -59 -67 -89 -96 -62 -59 -135 -132 -153 -151
-7 -6 -32 -29 -56 -50 -24 -20 -50 -51 -57 -68 -7 -17 -20 -36 -28 -44 -9 -7
-16 -16 -16 -21 0 -5 -20 -34 -44 -63 -24 -30 -47 -63 -50 -74 -4 -11 -18 -27
-31 -36 -14 -9 -25 -23 -25 -31 0 -7 -9 -20 -21 -29 -26 -18 -64 -72 -74 -106
-17 -57 -39 -90 -76 -114 -21 -15 -39 -34 -39 -43 0 -9 -9 -26 -19 -37 -11
-12 -38 -57 -61 -100 -23 -44 -68 -110 -101 -146 -55 -62 -116 -173 -133 -243
-3 -15 -26 -56 -50 -91 -24 -35 -46 -76 -50 -92 -4 -16 -21 -48 -37 -71 -20
-29 -32 -59 -36 -95 -6 -61 -16 -79 -83 -154 -28 -29 -66 -80 -87 -111 -20
-32 -47 -74 -60 -94 -13 -19 -23 -45 -23 -58 0 -24 -51 -101 -90 -136 -20 -18
-58 -91 -74 -142 -4 -11 -13 -27 -21 -33 -8 -7 -15 -19 -15 -27 0 -8 -11 -28
-23 -43 -19 -22 -25 -45 -30 -106 -7 -74 -9 -81 -47 -119 -22 -22 -40 -45 -40
-51 0 -6 -13 -30 -29 -55 -16 -24 -34 -71 -41 -104 -12 -65 -11 -63 -64 -178
-20 -43 -36 -82 -36 -86 0 -5 -18 -35 -40 -68 -30 -46 -41 -73 -46 -119 -7
-63 -16 -87 -44 -119 -20 -22 -60 -146 -80 -245 -7 -36 -26 -91 -41 -123 -40
-81 -69 -185 -69 -244 0 -39 -7 -60 -30 -94 l-30 -44 0 -242 0 -241 25 -30
c15 -18 30 -54 37 -88 10 -48 19 -65 56 -100 25 -24 52 -55 61 -68 9 -14 61
-64 116 -111 55 -47 114 -98 130 -114 50 -46 131 -78 220 -86 44 -4 89 -12
100 -19 42 -26 238 -55 249 -37 5 7 72 11 206 11 l198 0 42 35 c63 53 158 105
206 114 28 5 60 23 92 50 43 35 56 41 98 41 60 1 81 12 134 73 23 26 59 56 79
66 20 11 66 51 103 90 l67 71 55 0 c68 0 80 -14 96 -115 6 -38 17 -92 25 -120
8 -27 19 -75 26 -105 24 -113 86 -184 170 -195 32 -4 67 -17 85 -31 17 -12 65
-32 107 -43 41 -11 89 -27 106 -35 47 -25 337 -9 461 25 50 14 166 18 193 7
23 -10 25 -129 2 -148 -8 -7 -15 -17 -15 -22 0 -6 -20 -28 -44 -49 -24 -22
-54 -58 -65 -82 -12 -23 -42 -58 -66 -77 -28 -21 -45 -43 -45 -56 0 -11 -11
-31 -24 -43 -14 -13 -26 -38 -29 -62 -5 -41 -52 -110 -138 -205 -66 -74 -74
-96 -71 -213 l3 -105 52 -74 c77 -111 140 -167 237 -213 16 -7 90 -12 205 -13
l180 -1 60 31 c86 44 165 105 165 128 0 35 90 188 167 284 24 30 43 59 43 65
0 31 82 206 116 247 7 8 31 51 54 95 23 44 54 94 70 110 27 29 70 112 70 135
0 13 67 125 152 254 32 49 58 94 58 101 0 6 9 20 20 30 11 10 20 24 20 31 0 7
22 43 50 79 37 49 50 75 50 100 0 26 6 39 24 51 16 10 26 27 28 47 6 64 100
43 152 -34 18 -27 51 -62 74 -79 23 -16 48 -43 57 -60 8 -16 19 -30 24 -30 20
0 120 -92 144 -133 37 -63 96 -75 437 -88 311 -12 383 -5 429 42 26 26 37 29
90 29 33 0 72 5 86 10 26 10 140 98 220 171 33 30 50 37 95 41 52 5 57 8 113
69 32 35 76 88 98 117 22 29 73 80 113 112 40 33 88 82 106 108 19 26 50 65
71 88 20 23 40 50 43 61 4 12 24 33 45 48 37 25 171 175 171 190 0 5 12 24 28
44 15 20 33 58 40 86 13 49 45 95 67 95 22 0 65 56 65 84 0 38 16 64 67 112
23 22 43 49 43 60 0 26 37 130 58 163 9 14 49 58 89 96 39 39 73 79 75 89 3
19 17 29 52 40 17 6 18 13 12 77 -7 65 -5 73 17 102 13 18 26 51 29 74 5 32
22 62 73 127 l67 86 7 83 c4 45 12 91 18 102 30 57 63 157 73 218 17 107 37
178 57 200 36 41 42 77 46 317 l4 235 -30 80 c-15 44 -35 94 -42 110 -17 37
-40 110 -50 152 -4 23 -27 50 -81 97 -73 64 -77 66 -129 66 -30 0 -57 5 -60
10 -3 6 -19 10 -34 10 -15 0 -42 7 -60 16 -35 17 -98 10 -176 -20 -22 -8 -52
-15 -66 -16 -14 0 -43 -13 -64 -30 -21 -16 -46 -30 -57 -30 -33 0 -92 -37
-125 -78 -21 -26 -43 -42 -60 -44 -23 -3 -30 -12 -48 -60 -11 -32 -36 -74 -56
-95 -20 -21 -44 -59 -54 -86 -11 -29 -32 -59 -54 -77 -20 -16 -43 -36 -51 -43
-9 -7 -22 -40 -29 -72 -10 -44 -22 -68 -45 -90 -17 -17 -39 -45 -48 -63 -14
-26 -23 -32 -51 -32 -24 0 -41 -8 -62 -30 -23 -24 -37 -30 -71 -30 -54 0 -64
14 -63 86 0 33 -3 107 -8 166 -10 123 -17 135 -115 195 -34 20 -58 41 -58 51
0 43 -28 62 -90 62 -32 0 -62 5 -65 10 -3 6 -15 10 -25 10 -10 0 -32 11 -48
25 -49 41 -119 52 -170 26 -22 -11 -48 -21 -56 -21 -8 0 -30 -15 -48 -34 -38
-38 -68 -56 -97 -56 -28 0 -57 -46 -64 -103 -7 -52 -54 -133 -106 -181 -18
-18 -33 -44 -37 -65 -3 -20 -19 -52 -34 -71 -15 -19 -34 -49 -43 -66 -9 -17
-23 -34 -31 -37 -27 -11 -76 -94 -76 -131 0 -19 -9 -51 -20 -71 -11 -20 -20
-41 -20 -48 0 -40 -73 -158 -108 -176 -63 -32 -84 -62 -91 -133 -9 -76 -37
-133 -85 -171 -20 -15 -36 -32 -36 -37 0 -6 -18 -28 -39 -51 -22 -22 -45 -57
-52 -77 -6 -20 -17 -44 -24 -52 -7 -8 -25 -38 -39 -66 -14 -28 -46 -75 -71
-105 -24 -30 -56 -69 -70 -86 -15 -18 -29 -51 -32 -73 -5 -33 -18 -53 -77
-112 -101 -103 -153 -195 -167 -295 -13 -94 -9 -88 -69 -118 -61 -31 -86 -63
-100 -129 -15 -71 -35 -87 -117 -95 -84 -9 -126 -30 -158 -82 -14 -22 -38 -45
-53 -51 -15 -7 -43 -25 -63 -40 -20 -15 -69 -43 -110 -63 -74 -35 -99 -57
-231 -192 -38 -39 -84 -78 -102 -87 -20 -10 -36 -26 -40 -41 -3 -13 -16 -30
-29 -36 -12 -7 -40 -27 -63 -46 -23 -18 -44 -33 -48 -33 -4 0 -27 -9 -52 -21
-25 -11 -60 -19 -77 -17 -30 3 -32 6 -35 46 -3 38 1 48 32 83 20 21 36 46 36
54 0 8 11 34 25 57 14 24 37 66 50 93 14 28 43 73 64 101 41 54 111 192 111
218 0 9 9 20 20 26 12 6 26 32 35 68 24 86 67 179 119 256 26 38 49 81 53 95
19 77 116 217 222 319 58 56 109 102 113 102 11 0 35 51 42 92 5 27 19 48 56
80 27 24 54 54 60 68 23 52 40 73 144 177 59 59 120 123 134 142 15 20 71 79
124 131 77 76 99 104 108 137 16 65 17 293 1 323 -16 30 -62 80 -73 80 -4 0
-28 20 -52 45 -25 24 -57 47 -73 51 -15 4 -40 18 -54 31 -17 15 -43 26 -70 30
-24 2 -53 8 -64 13 -11 5 -37 11 -57 15 -23 3 -42 14 -48 25 -7 13 -21 20 -40
20 -20 0 -35 8 -46 25 -12 18 -25 25 -48 25 -18 0 -36 4 -42 10 -16 16 -97 23
-141 11 -23 -6 -72 -35 -110 -64 -70 -54 -72 -57 -157 -234 -15 -33 -55 -91
-87 -128 -32 -37 -66 -89 -75 -114 -12 -34 -39 -68 -100 -127 -58 -56 -84 -88
-84 -105 0 -58 -36 -143 -81 -193 -25 -28 -52 -62 -59 -75 -7 -13 -33 -50 -58
-82 -27 -35 -48 -74 -51 -96 -5 -27 -12 -39 -28 -43 -27 -6 -52 -38 -91 -115
-16 -33 -53 -82 -81 -110 -102 -98 -113 -114 -124 -172 -11 -56 -53 -113 -84
-113 -20 0 -45 -18 -99 -72 -133 -136 -261 -251 -303 -274 -23 -12 -60 -43
-83 -69 -23 -26 -57 -54 -76 -62 -30 -13 -97 -74 -176 -162 -16 -18 -43 -39
-60 -46 -17 -7 -49 -21 -71 -31 -52 -22 -102 -61 -200 -156 -63 -62 -85 -78
-110 -78 -32 0 -42 -5 -121 -57 -42 -28 -58 -33 -114 -33 -46 0 -74 -6 -96
-19 -33 -20 -116 -31 -266 -34 -116 -3 -110 -19 -112 294 l-1 264 39 48 c51
62 380 359 412 373 14 6 43 29 64 52 21 23 46 42 57 42 11 0 32 13 48 30 16
16 33 30 37 30 52 0 244 124 336 217 19 19 51 45 72 58 21 13 78 62 128 109
49 47 95 86 100 86 6 0 17 11 24 24 7 14 45 52 84 85 40 33 98 93 131 133 32
40 69 78 82 84 39 20 189 182 243 263 58 85 181 215 215 225 13 4 30 24 40 44
9 20 48 68 86 107 38 38 77 85 87 105 10 19 27 44 39 54 12 11 21 25 21 33 0
7 14 22 31 32 30 18 46 39 69 90 14 32 37 61 163 207 59 69 107 129 107 134 0
5 18 29 40 55 22 25 44 63 50 84 5 21 26 59 45 84 20 26 38 61 42 79 3 18 12
44 20 58 7 14 13 36 13 50 0 30 17 56 79 126 48 52 62 94 80 234 4 30 21 82
39 115 17 33 44 101 60 150 16 50 42 119 57 154 25 59 26 72 21 155 -14 228
-21 274 -44 299 -15 15 -22 36 -22 61 0 40 -50 126 -74 126 -7 0 -22 14 -34
30 -13 17 -32 30 -42 30 -30 0 -102 56 -116 90 -15 35 -98 80 -147 80 -28 0
-40 7 -61 35 -26 34 -30 35 -91 35 -50 0 -74 6 -109 25 -44 24 -122 32 -181
18z m422 -805 c25 -24 33 -40 33 -67 0 -39 0 -39 -150 -184 -83 -80 -130 -142
-130 -172 0 -46 -49 -154 -88 -194 -39 -40 -140 -232 -184 -348 -13 -36 -42
-79 -85 -126 -36 -40 -79 -92 -95 -117 -17 -25 -39 -54 -48 -65 -10 -11 -20
-32 -24 -47 -3 -15 -19 -41 -35 -57 -16 -17 -33 -40 -37 -53 -8 -29 -71 -105
-186 -230 -25 -26 -38 -50 -38 -68 0 -35 -70 -124 -198 -250 -53 -52 -122
-132 -152 -178 -75 -113 -277 -332 -372 -404 -27 -20 -66 -60 -86 -90 -27 -38
-45 -54 -64 -56 -28 -3 -98 -73 -146 -145 -23 -35 -29 -38 -66 -35 l-41 3 1
53 c2 61 16 82 54 82 34 0 71 66 80 140 4 34 11 47 28 56 33 16 61 66 84 148
12 44 31 84 51 108 81 96 89 109 106 182 11 47 28 86 44 106 15 17 27 36 27
41 0 20 62 99 88 113 31 16 111 164 138 256 10 33 31 71 53 95 65 70 121 151
121 174 0 13 17 39 40 62 24 24 40 49 40 63 0 16 12 32 41 50 24 16 48 44 60
69 36 78 94 164 157 233 34 38 71 89 83 114 11 25 34 59 49 75 16 17 40 55 54
85 14 32 42 69 64 87 33 27 119 118 356 376 28 31 41 37 74 37 40 0 98 36 129
80 29 41 126 40 170 -2z m3810 -2128 c46 -44 61 -97 49 -173 -4 -23 -10 -72
-14 -109 -9 -76 -28 -104 -115 -170 -12 -9 -21 -36 -28 -83 -11 -80 -16 -89
-94 -168 -42 -43 -60 -70 -67 -100 -5 -23 -15 -49 -22 -57 -7 -8 -16 -30 -20
-49 -8 -43 -63 -129 -88 -137 -11 -3 -35 -30 -54 -60 -19 -30 -41 -54 -48 -54
-24 0 -43 -35 -49 -89 -4 -30 -11 -59 -17 -65 -5 -5 -10 -18 -10 -27 0 -25
-38 -66 -80 -87 -34 -17 -49 -44 -65 -116 -7 -34 -94 -121 -142 -142 -36 -15
-57 -49 -67 -106 -7 -37 -110 -158 -135 -158 -6 0 -18 -18 -27 -40 -21 -51
-79 -97 -133 -106 -46 -7 -97 -63 -151 -162 l-25 -47 -60 -3 c-50 -3 -65 -8
-90 -32 -28 -26 -36 -28 -131 -32 -56 -2 -108 -9 -115 -15 -9 -7 -72 -11 -180
-11 -92 0 -191 -3 -222 -7 -53 -7 -55 -6 -69 21 -9 20 -23 31 -43 34 -25 4
-30 10 -30 35 0 28 3 30 46 36 54 8 127 69 144 122 7 23 23 37 62 56 47 24 93
67 93 88 0 14 81 88 128 117 23 14 42 30 42 35 0 5 20 21 45 35 43 26 65 65
65 118 0 29 40 48 100 48 86 0 191 84 251 201 12 25 31 44 54 53 23 10 37 24
41 42 4 15 23 44 43 66 86 93 171 178 177 178 24 0 44 36 44 79 0 57 58 121
127 142 43 12 99 78 118 139 4 13 40 59 79 102 101 110 132 149 162 201 14 26
52 75 85 109 34 35 67 77 74 94 8 20 27 38 51 50 27 13 40 27 42 44 4 29 79
110 102 110 9 0 31 20 49 45 41 57 64 58 118 5z M8825 6779 c-22 -10 -49 -19
-59 -19 -11 0 -28 -8 -39 -17 -14 -14 -45 -20 -121 -25 -119 -7 -132 -11 -151
-49 -8 -15 -25 -31 -37 -35 -37 -12 -77 -45 -87 -75 -7 -19 -24 -34 -55 -49
-25 -11 -46 -25 -46 -30 0 -6 -15 -27 -33 -47 -18 -21 -39 -54 -47 -73 -7 -19
-26 -52 -41 -72 -16 -20 -29 -43 -29 -51 0 -8 -9 -22 -19 -31 -21 -20 -36 -89
-51 -245 -20 -208 -6 -311 46 -345 16 -11 26 -30 30 -59 15 -93 194 -217 315
-217 23 0 79 -5 123 -11 98 -14 189 0 206 32 9 16 22 19 79 19 l69 0 81 80
c44 43 81 83 81 87 0 5 18 27 41 48 22 22 52 59 66 82 14 24 38 52 54 64 16
11 29 25 29 31 0 6 18 32 40 58 22 26 40 54 40 62 0 7 13 40 29 73 l29 60 -6
259 -5 258 -60 64 c-87 94 -201 164 -266 164 -16 0 -48 7 -71 15 -54 19 -85
18 -135 -6z M14070 6573 c-50 -4 -58 -8 -101 -53 -52 -54 -92 -70 -180 -70
-44 0 -64 -5 -90 -25 -19 -13 -52 -33 -74 -44 -47 -23 -74 -64 -95 -146 -13
-51 -19 -60 -40 -63 -42 -6 -50 -20 -51 -91 -2 -110 -5 -115 -74 -121 l-60 -5
2 -40 c2 -22 5 -66 9 -98 7 -68 2 -76 -69 -111 -101 -49 -121 -73 -125 -154
-4 -68 -6 -72 -37 -91 -19 -11 -42 -32 -51 -48 -10 -15 -32 -44 -50 -64 -31
-36 -58 -108 -68 -182 -4 -29 -16 -49 -49 -80 -69 -65 -102 -137 -102 -222 l0
-70 -60 -3 c-70 -3 -85 -17 -85 -77 0 -46 -39 -94 -93 -114 -18 -7 -34 -25
-46 -53 -26 -61 -97 -165 -125 -183 -28 -18 -42 -51 -51 -115 -8 -61 -76 -149
-138 -178 -58 -27 -77 -55 -77 -113 0 -37 -6 -55 -27 -80 -16 -18 -29 -49 -33
-73 l-5 -41 -67 -3 c-58 -2 -69 -6 -79 -25 -11 -20 -32 -44 -170 -185 -46 -47
-56 -70 -66 -149 -5 -44 -33 -78 -68 -85 -19 -3 -21 -14 -27 -153 -5 -103 -4
-159 4 -178 8 -20 9 -91 5 -233 -8 -229 -4 -248 68 -319 21 -22 35 -48 40 -74
8 -51 48 -105 121 -167 32 -27 79 -68 104 -92 34 -30 56 -42 77 -42 17 0 37
-7 44 -16 12 -15 27 -16 124 -8 60 4 175 7 255 6 l145 -3 80 39 c44 22 92 42
106 46 15 3 45 21 67 40 28 23 56 36 89 41 44 6 56 16 171 128 68 67 133 138
144 157 12 19 34 49 49 65 15 17 37 51 49 78 11 26 25 47 29 47 18 0 107 82
128 118 44 73 83 154 83 172 0 10 11 25 25 34 14 9 25 23 25 30 0 8 11 37 25
64 14 28 25 58 25 67 0 10 25 91 55 181 42 122 57 184 62 245 5 71 11 91 43
143 20 34 40 79 43 101 17 99 20 106 78 166 l58 60 84 9 c76 8 151 35 212 79
6 4 30 13 55 20 25 7 74 21 110 31 89 26 375 47 420 32 18 -7 50 -12 71 -12
80 0 159 -79 159 -158 0 -43 5 -57 30 -85 17 -19 30 -38 30 -42 0 -4 9 -20 21
-36 38 -54 79 -29 79 48 1 49 47 189 81 243 25 40 57 120 63 159 4 24 14 57
23 74 13 26 15 56 11 184 -6 173 -3 164 -100 265 -35 36 -69 78 -76 92 -11 26
-61 46 -113 46 -15 0 -32 7 -39 15 -17 20 -193 21 -232 1 -14 -8 -66 -19 -115
-25 -48 -7 -101 -18 -118 -25 -86 -39 -104 -46 -150 -61 -27 -9 -69 -27 -93
-41 -23 -14 -70 -30 -105 -36 -34 -6 -74 -17 -89 -24 -44 -23 -105 -18 -120 9
-22 40 -13 218 16 327 15 52 38 153 52 223 23 111 31 134 60 169 19 22 34 51
34 64 0 13 4 32 9 42 20 39 50 130 56 170 4 23 17 55 30 70 12 15 32 45 43 67
11 22 32 63 46 90 14 28 29 73 32 100 5 36 16 62 42 94 35 43 35 44 23 95 -6
28 -16 73 -21 100 -13 69 -68 126 -121 126 -21 0 -41 5 -44 10 -6 10 -134 11
-255 3z m-848 -1823 c7 -45 1 -426 -8 -467 -2 -12 -24 -45 -49 -75 -40 -46
-53 -54 -97 -63 -46 -9 -55 -15 -77 -53 -37 -60 -65 -76 -145 -82 -48 -3 -71
-10 -76 -20 -34 -75 -34 -75 -75 -75 -39 0 -40 1 -43 38 -2 25 3 46 17 66 12
16 21 34 21 40 0 6 4 19 9 29 13 25 31 86 31 104 0 8 9 27 20 41 11 14 20 32
20 40 0 8 7 20 16 28 8 7 25 30 37 52 40 72 45 79 85 121 23 23 54 73 73 116
18 41 45 90 61 108 15 18 28 38 28 44 0 28 54 58 100 55 l45 -2 7 -45z m-325
-1280 c21 -42 17 -202 -7 -247 -10 -21 -24 -72 -31 -113 -10 -61 -18 -82 -43
-110 -57 -62 -86 -114 -86 -152 0 -35 -38 -88 -64 -88 -6 0 -27 -16 -46 -35
-195 -195 -274 -230 -360 -157 -127 105 -179 211 -166 337 3 33 10 102 15 154
10 102 13 108 81 136 25 11 72 37 105 60 80 53 102 65 118 65 22 0 129 59 162
89 37 34 76 51 118 51 18 1 48 10 67 20 51 29 120 23 137 -10z"/></g></svg>